<svg width="152" height="48" viewBox="0 0 152 48" fill="none" xmlns="http://www.w3.org/2000/svg">
<path d="M0 10C0 4.47716 4.47715 0 10 0H141.356C146.879 0 151.356 4.47715 151.356 10V37.7917C151.356 43.3145 146.879 47.7917 141.356 47.7917H9.99999C4.47714 47.7917 0 43.3145 0 37.7917V10Z" fill="#333333"/>
<path d="M57.9706 33.9689H53.654L52.803 35.9531H51.1503L55.0353 27.3793H56.614L60.5113 35.9531H58.834L57.9706 33.9689ZM57.4403 32.7196L55.8123 28.9716L54.1966 32.7196H57.4403Z" fill="white"/>
<path d="M65.1119 29.339C65.7533 29.339 66.3247 29.4779 66.8263 29.7555C67.336 30.0331 67.7348 30.4251 68.0226 30.9313C68.3104 31.4376 68.4543 32.0214 68.4543 32.6828C68.4543 33.3442 68.3104 33.9321 68.0226 34.4466C67.7348 34.9528 67.336 35.3448 66.8263 35.6224C66.3247 35.9 65.7533 36.0388 65.1119 36.0388C64.2239 36.0388 63.5209 35.7449 63.0029 35.157V38.3293H61.4613V29.4125H62.9289V30.2699C63.1838 29.9596 63.4963 29.7269 63.8663 29.5718C64.2445 29.4166 64.6597 29.339 65.1119 29.339ZM64.9393 34.7283C65.5066 34.7283 65.9712 34.5405 66.3329 34.1649C66.7029 33.7892 66.8879 33.2952 66.8879 32.6828C66.8879 32.0704 66.7029 31.5764 66.3329 31.2008C65.9712 30.8252 65.5066 30.6374 64.9393 30.6374C64.5693 30.6374 64.2363 30.7231 63.9403 30.8946C63.6443 31.0579 63.4099 31.2947 63.2373 31.605C63.0646 31.9153 62.9783 32.2745 62.9783 32.6828C62.9783 33.0911 63.0646 33.4504 63.2373 33.7607C63.4099 34.071 63.6443 34.3118 63.9403 34.4833C64.2363 34.6466 64.5693 34.7283 64.9393 34.7283Z" fill="white"/>
<path d="M73.567 29.339C74.2083 29.339 74.7798 29.4779 75.2813 29.7555C75.7911 30.0331 76.1899 30.4251 76.4777 30.9313C76.7655 31.4376 76.9094 32.0214 76.9094 32.6828C76.9094 33.3442 76.7655 33.9321 76.4777 34.4466C76.1899 34.9528 75.7911 35.3448 75.2813 35.6224C74.7798 35.9 74.2083 36.0388 73.567 36.0388C72.679 36.0388 71.976 35.7449 71.458 35.157V38.3293H69.9163V29.4125H71.384V30.2699C71.6389 29.9596 71.9513 29.7269 72.3213 29.5718C72.6996 29.4166 73.1148 29.339 73.567 29.339ZM73.3943 34.7283C73.9617 34.7283 74.4262 34.5405 74.788 34.1649C75.158 33.7892 75.343 33.2952 75.343 32.6828C75.343 32.0704 75.158 31.5764 74.788 31.2008C74.4262 30.8252 73.9617 30.6374 73.3943 30.6374C73.0243 30.6374 72.6913 30.7231 72.3953 30.8946C72.0993 31.0579 71.865 31.2947 71.6923 31.605C71.5197 31.9153 71.4333 32.2745 71.4333 32.6828C71.4333 33.0911 71.5197 33.4504 71.6923 33.7607C71.865 34.071 72.0993 34.3118 72.3953 34.4833C72.6913 34.6466 73.0243 34.7283 73.3943 34.7283Z" fill="white"/>
<path d="M84.6043 36.0756C83.9383 36.0756 83.2928 35.9817 82.668 35.7939C82.0513 35.6061 81.5621 35.357 81.2003 35.0467L81.7553 33.8097C82.1088 34.0873 82.5405 34.3159 83.0503 34.4956C83.5683 34.667 84.0863 34.7528 84.6043 34.7528C85.2456 34.7528 85.7225 34.6507 86.035 34.4466C86.3556 34.2424 86.516 33.973 86.516 33.6382C86.516 33.3932 86.4255 33.1932 86.2446 33.038C86.072 32.8747 85.85 32.7481 85.5786 32.6583C85.3073 32.5685 84.9373 32.4664 84.4686 32.3521C83.8108 32.197 83.2764 32.0418 82.8653 31.8867C82.4624 31.7315 82.113 31.4907 81.817 31.164C81.5292 30.8292 81.3853 30.3801 81.3853 29.8167C81.3853 29.3431 81.5127 28.9144 81.7676 28.5307C82.0307 28.1387 82.4213 27.8284 82.9393 27.5998C83.4655 27.3712 84.1068 27.2568 84.8633 27.2568C85.3895 27.2568 85.9075 27.3222 86.4173 27.4528C86.9271 27.5835 87.367 27.7713 87.737 28.0162L87.2313 29.2533C86.8531 29.0328 86.4584 28.8654 86.0473 28.7511C85.6362 28.6368 85.2374 28.5796 84.851 28.5796C84.2178 28.5796 83.7451 28.6858 83.4326 28.8981C83.1284 29.1104 82.9763 29.3921 82.9763 29.7432C82.9763 29.9882 83.0626 30.1883 83.2353 30.3434C83.4162 30.4985 83.6423 30.621 83.9136 30.7108C84.185 30.8007 84.555 30.9027 85.0236 31.0171C85.665 31.164 86.1912 31.3192 86.6023 31.4825C87.0134 31.6376 87.3628 31.8785 87.6506 32.2051C87.9466 32.5318 88.0946 32.9727 88.0946 33.528C88.0946 34.0016 87.9631 34.4302 87.7 34.814C87.4451 35.1978 87.0545 35.504 86.5283 35.7326C86.0021 35.9613 85.3607 36.0756 84.6043 36.0756Z" fill="white"/>
<path d="M93.4955 35.5979C93.3146 35.7449 93.0926 35.8551 92.8295 35.9286C92.5746 36.0021 92.3032 36.0388 92.0155 36.0388C91.2919 36.0388 90.7328 35.851 90.3381 35.4754C89.9435 35.0998 89.7461 34.5527 89.7461 33.8342V30.6864H88.6608V29.4615H89.7461V27.9672H91.2878V29.4615H93.0515V30.6864H91.2878V33.7974C91.2878 34.1159 91.3659 34.3608 91.5221 34.5323C91.6784 34.6956 91.9045 34.7773 92.2005 34.7773C92.5458 34.7773 92.8336 34.6875 93.0638 34.5078L93.4955 35.5979Z" fill="white"/>
<path d="M97.5069 36.0388C96.8409 36.0388 96.2407 35.896 95.7062 35.6102C95.1718 35.3244 94.7524 34.9283 94.4482 34.4221C94.1522 33.9076 94.0042 33.3279 94.0042 32.6828C94.0042 32.0377 94.1522 31.4621 94.4482 30.9558C94.7524 30.4496 95.1718 30.0535 95.7062 29.7677C96.2407 29.4819 96.8409 29.339 97.5069 29.339C98.1811 29.339 98.7854 29.4819 99.3199 29.7677C99.8543 30.0535 100.27 30.4496 100.566 30.9558C100.87 31.4621 101.022 32.0377 101.022 32.6828C101.022 33.3279 100.87 33.9076 100.566 34.4221C100.27 34.9283 99.8543 35.3244 99.3199 35.6102C98.7854 35.896 98.1811 36.0388 97.5069 36.0388ZM97.5069 34.7283C98.0742 34.7283 98.5429 34.5405 98.9129 34.1649C99.2829 33.7892 99.4679 33.2952 99.4679 32.6828C99.4679 32.0704 99.2829 31.5764 98.9129 31.2008C98.5429 30.8252 98.0742 30.6374 97.5069 30.6374C96.9395 30.6374 96.4709 30.8252 96.1009 31.2008C95.7391 31.5764 95.5582 32.0704 95.5582 32.6828C95.5582 33.2952 95.7391 33.7892 96.1009 34.1649C96.4709 34.5405 96.9395 34.7283 97.5069 34.7283Z" fill="white"/>
<path d="M103.964 30.3679C104.408 29.682 105.189 29.339 106.307 29.339V30.7966C106.176 30.7721 106.056 30.7598 105.949 30.7598C105.349 30.7598 104.881 30.9354 104.543 31.2865C104.206 31.6295 104.038 32.1276 104.038 32.7808V35.9531H102.496V29.4125H103.964V30.3679Z" fill="white"/>
<path d="M113.746 32.7196C113.746 32.8257 113.738 32.9768 113.721 33.1728H108.554C108.644 33.6545 108.878 34.0383 109.257 34.3241C109.643 34.6017 110.12 34.7405 110.687 34.7405C111.411 34.7405 112.007 34.5037 112.476 34.0301L113.302 34.9732C113.006 35.3244 112.632 35.5897 112.18 35.7694C111.727 35.949 111.218 36.0388 110.65 36.0388C109.927 36.0388 109.29 35.896 108.739 35.6102C108.188 35.3244 107.76 34.9283 107.456 34.4221C107.16 33.9076 107.012 33.3279 107.012 32.6828C107.012 32.0459 107.156 31.4743 107.444 30.9681C107.74 30.4536 108.147 30.0535 108.665 29.7677C109.183 29.4819 109.766 29.339 110.416 29.339C111.057 29.339 111.629 29.4819 112.13 29.7677C112.64 30.0454 113.035 30.4414 113.314 30.9558C113.602 31.4621 113.746 32.05 113.746 32.7196ZM110.416 30.5639C109.923 30.5639 109.503 30.7108 109.158 31.0048C108.821 31.2906 108.615 31.6744 108.541 32.1561H112.278C112.213 31.6825 112.011 31.2988 111.674 31.0048C111.337 30.7108 110.918 30.5639 110.416 30.5639Z" fill="white"/>
<path d="M51.6894 15.301H54.0481C54.6237 15.301 55.135 15.4133 55.5821 15.6378C56.0292 15.8573 56.376 16.1711 56.6227 16.5794C56.8694 16.9826 56.9927 17.4496 56.9927 17.9803C56.9927 18.5111 56.8694 18.9806 56.6227 19.3889C56.376 19.792 56.0292 20.1059 55.5821 20.3305C55.135 20.5499 54.6237 20.6596 54.0481 20.6596H51.6894V15.301ZM54.0019 19.8176C54.3976 19.8176 54.7444 19.7436 55.0425 19.5956C55.3457 19.4425 55.5769 19.2281 55.7363 18.9525C55.9007 18.6718 55.9829 18.3478 55.9829 17.9803C55.9829 17.6129 55.9007 17.2914 55.7363 17.0158C55.5769 16.7351 55.3457 16.5207 55.0425 16.3727C54.7444 16.2196 54.3976 16.1431 54.0019 16.1431H52.6915V19.8176H54.0019Z" fill="white"/>
<path d="M59.8153 20.7132C59.399 20.7132 59.0239 20.6239 58.6899 20.4453C58.3558 20.2667 58.0938 20.0191 57.9036 19.7027C57.7186 19.3812 57.6261 19.0189 57.6261 18.6157C57.6261 18.2125 57.7186 17.8527 57.9036 17.5363C58.0938 17.2199 58.3558 16.9724 58.6899 16.7938C59.0239 16.6151 59.399 16.5258 59.8153 16.5258C60.2367 16.5258 60.6144 16.6151 60.9484 16.7938C61.2824 16.9724 61.542 17.2199 61.727 17.5363C61.9171 17.8527 62.0122 18.2125 62.0122 18.6157C62.0122 19.0189 61.9171 19.3812 61.727 19.7027C61.542 20.0191 61.2824 20.2667 60.9484 20.4453C60.6144 20.6239 60.2367 20.7132 59.8153 20.7132ZM59.8153 19.8941C60.1699 19.8941 60.4628 19.7767 60.694 19.542C60.9253 19.3072 61.0409 18.9985 61.0409 18.6157C61.0409 18.2329 60.9253 17.9242 60.694 17.6894C60.4628 17.4547 60.1699 17.3373 59.8153 17.3373C59.4607 17.3373 59.1678 17.4547 58.9365 17.6894C58.7104 17.9242 58.5974 18.2329 58.5974 18.6157C58.5974 18.9985 58.7104 19.3072 58.9365 19.542C59.1678 19.7767 59.4607 19.8941 59.8153 19.8941Z" fill="white"/>
<path d="M69.2417 16.5718L67.7231 20.6596H66.7981L65.7344 17.8425L64.6552 20.6596H63.7302L62.2194 16.5718H63.129L64.2158 19.5879L65.349 16.5718H66.1583L67.2683 19.6032L68.386 16.5718H69.2417Z" fill="white"/>
<path d="M72.2398 16.5258C72.7588 16.5258 73.1751 16.6764 73.4885 16.9775C73.802 17.2786 73.9587 17.7251 73.9587 18.3171V20.6596H72.9952V18.4396C72.9952 18.0824 72.9104 17.8145 72.7408 17.6358C72.5712 17.4521 72.3297 17.3603 72.0162 17.3603C71.6617 17.3603 71.3816 17.4674 71.176 17.6818C70.9705 17.891 70.8677 18.1947 70.8677 18.5927V20.6596H69.9042V16.5718H70.8215V17.1C70.9808 16.9111 71.1812 16.7683 71.4227 16.6713C71.6642 16.5743 71.9366 16.5258 72.2398 16.5258Z" fill="white"/>
<path d="M75.1811 14.9795H76.1446V20.6596H75.1811V14.9795Z" fill="white"/>
<path d="M79.2593 20.7132C78.843 20.7132 78.4679 20.6239 78.1338 20.4453C77.7998 20.2667 77.5377 20.0191 77.3476 19.7027C77.1626 19.3812 77.0701 19.0189 77.0701 18.6157C77.0701 18.2125 77.1626 17.8527 77.3476 17.5363C77.5377 17.2199 77.7998 16.9724 78.1338 16.7938C78.4679 16.6151 78.843 16.5258 79.2593 16.5258C79.6806 16.5258 80.0583 16.6151 80.3924 16.7938C80.7264 16.9724 80.9859 17.2199 81.1709 17.5363C81.3611 17.8527 81.4561 18.2125 81.4561 18.6157C81.4561 19.0189 81.3611 19.3812 81.1709 19.7027C80.9859 20.0191 80.7264 20.2667 80.3924 20.4453C80.0583 20.6239 79.6806 20.7132 79.2593 20.7132ZM79.2593 19.8941C79.6138 19.8941 79.9068 19.7767 80.138 19.542C80.3693 19.3072 80.4849 18.9985 80.4849 18.6157C80.4849 18.2329 80.3693 17.9242 80.138 17.6894C79.9068 17.4547 79.6138 17.3373 79.2593 17.3373C78.9047 17.3373 78.6118 17.4547 78.3805 17.6894C78.1544 17.9242 78.0413 18.2329 78.0413 18.6157C78.0413 18.9985 78.1544 19.3072 78.3805 19.542C78.6118 19.7767 78.9047 19.8941 79.2593 19.8941Z" fill="white"/>
<path d="M83.8973 16.5258C84.5037 16.5258 84.9662 16.6713 85.2848 16.9622C85.6086 17.248 85.7704 17.6818 85.7704 18.2636V20.6596H84.8609V20.162C84.7427 20.3407 84.5731 20.4785 84.3521 20.5754C84.1363 20.6673 83.8742 20.7132 83.5659 20.7132C83.2575 20.7132 82.9877 20.6622 82.7565 20.5601C82.5252 20.4529 82.3454 20.3075 82.2169 20.1238C82.0936 19.9349 82.0319 19.7231 82.0319 19.4884C82.0319 19.1209 82.1681 18.8275 82.4404 18.608C82.7179 18.3835 83.1522 18.2712 83.7432 18.2712H84.8069V18.21C84.8069 17.9242 84.7195 17.7047 84.5448 17.5516C84.3752 17.3985 84.1209 17.322 83.7817 17.322C83.5504 17.322 83.3218 17.3577 83.0957 17.4291C82.8747 17.5006 82.6871 17.6001 82.5329 17.7277L82.1552 17.0311C82.3711 16.8678 82.6306 16.7427 82.9338 16.656C83.237 16.5692 83.5582 16.5258 83.8973 16.5258ZM83.7663 20.0166C84.0078 20.0166 84.2211 19.963 84.4061 19.8558C84.5962 19.7436 84.7298 19.5854 84.8069 19.3812V18.9066H83.8125C83.2575 18.9066 82.98 19.0878 82.98 19.4501C82.98 19.6236 83.0494 19.7614 83.1882 19.8635C83.3269 19.9656 83.5196 20.0166 83.7663 20.0166Z" fill="white"/>
<path d="M91.0761 14.9795V20.6596H90.1511V20.1314C89.9918 20.3254 89.794 20.4708 89.5576 20.5678C89.3263 20.6647 89.0694 20.7132 88.7868 20.7132C88.3911 20.7132 88.0339 20.6265 87.7153 20.4529C87.4018 20.2794 87.1552 20.0345 86.9753 19.718C86.7954 19.3965 86.7055 19.0291 86.7055 18.6157C86.7055 18.2023 86.7954 17.8374 86.9753 17.521C87.1552 17.2046 87.4018 16.9596 87.7153 16.7861C88.0339 16.6126 88.3911 16.5258 88.7868 16.5258C89.0591 16.5258 89.3083 16.5718 89.5345 16.6636C89.7606 16.7555 89.9533 16.8933 90.1126 17.077V14.9795H91.0761ZM88.9024 19.8941C89.1336 19.8941 89.3418 19.8431 89.5268 19.741C89.7118 19.6338 89.8582 19.4833 89.9661 19.2894C90.074 19.0954 90.128 18.8709 90.128 18.6157C90.128 18.3605 90.074 18.136 89.9661 17.942C89.8582 17.7481 89.7118 17.6001 89.5268 17.498C89.3418 17.3909 89.1336 17.3373 88.9024 17.3373C88.6711 17.3373 88.463 17.3909 88.278 17.498C88.093 17.6001 87.9465 17.7481 87.8386 17.942C87.7307 18.136 87.6768 18.3605 87.6768 18.6157C87.6768 18.8709 87.7307 19.0954 87.8386 19.2894C87.9465 19.4833 88.093 19.6338 88.278 19.741C88.463 19.8431 88.6711 19.8941 88.9024 19.8941Z" fill="white"/>
<path d="M96.317 20.7132C95.9007 20.7132 95.5256 20.6239 95.1915 20.4453C94.8575 20.2667 94.5954 20.0191 94.4053 19.7027C94.2203 19.3812 94.1278 19.0189 94.1278 18.6157C94.1278 18.2125 94.2203 17.8527 94.4053 17.5363C94.5954 17.2199 94.8575 16.9724 95.1915 16.7938C95.5256 16.6151 95.9007 16.5258 96.317 16.5258C96.7383 16.5258 97.116 16.6151 97.4501 16.7938C97.7841 16.9724 98.0436 17.2199 98.2286 17.5363C98.4188 17.8527 98.5138 18.2125 98.5138 18.6157C98.5138 19.0189 98.4188 19.3812 98.2286 19.7027C98.0436 20.0191 97.7841 20.2667 97.4501 20.4453C97.116 20.6239 96.7383 20.7132 96.317 20.7132ZM96.317 19.8941C96.6715 19.8941 96.9645 19.7767 97.1957 19.542C97.4269 19.3072 97.5426 18.9985 97.5426 18.6157C97.5426 18.2329 97.4269 17.9242 97.1957 17.6894C96.9645 17.4547 96.6715 17.3373 96.317 17.3373C95.9624 17.3373 95.6695 17.4547 95.4382 17.6894C95.2121 17.9242 95.099 18.2329 95.099 18.6157C95.099 18.9985 95.2121 19.3072 95.4382 19.542C95.6695 19.7767 95.9624 19.8941 96.317 19.8941Z" fill="white"/>
<path d="M101.771 16.5258C102.29 16.5258 102.706 16.6764 103.02 16.9775C103.333 17.2786 103.49 17.7251 103.49 18.3171V20.6596H102.526V18.4396C102.526 18.0824 102.441 17.8145 102.272 17.6358C102.102 17.4521 101.861 17.3603 101.547 17.3603C101.193 17.3603 100.913 17.4674 100.707 17.6818C100.502 17.891 100.399 18.1947 100.399 18.5927V20.6596H99.4352V16.5718H100.353V17.1C100.512 16.9111 100.712 16.7683 100.954 16.6713C101.195 16.5743 101.468 16.5258 101.771 16.5258Z" fill="white"/>
<path d="M109.317 20.4376C109.204 20.5295 109.065 20.5984 108.901 20.6443C108.741 20.6903 108.572 20.7132 108.392 20.7132C107.94 20.7132 107.59 20.5958 107.343 20.3611C107.097 20.1263 106.973 19.7844 106.973 19.3353V17.3679H106.295V16.6024H106.973V15.6685H107.937V16.6024H109.039V17.3679H107.937V19.3123C107.937 19.5114 107.986 19.6645 108.083 19.7716C108.181 19.8737 108.322 19.9247 108.507 19.9247C108.723 19.9247 108.903 19.8686 109.047 19.7563L109.317 20.4376Z" fill="white"/>
<path d="M112.445 16.5258C112.964 16.5258 113.38 16.6764 113.694 16.9775C114.007 17.2786 114.164 17.7251 114.164 18.3171V20.6596H113.2V18.4396C113.2 18.0824 113.116 17.8145 112.946 17.6358C112.777 17.4521 112.535 17.3603 112.222 17.3603C111.867 17.3603 111.587 17.4674 111.381 17.6818C111.176 17.891 111.073 18.1947 111.073 18.5927V20.6596H110.109V14.9795H111.073V17.0464C111.232 16.878 111.428 16.7504 111.659 16.6636C111.895 16.5718 112.157 16.5258 112.445 16.5258Z" fill="white"/>
<path d="M119.294 18.6387C119.294 18.705 119.288 18.7994 119.278 18.9219H116.048C116.105 19.223 116.251 19.4629 116.488 19.6415C116.729 19.815 117.027 19.9018 117.382 19.9018C117.834 19.9018 118.207 19.7538 118.5 19.4578L119.016 20.0472C118.831 20.2667 118.597 20.4325 118.315 20.5448C118.032 20.6571 117.713 20.7132 117.359 20.7132C116.907 20.7132 116.508 20.6239 116.164 20.4453C115.82 20.2667 115.552 20.0191 115.362 19.7027C115.177 19.3812 115.085 19.0189 115.085 18.6157C115.085 18.2176 115.175 17.8604 115.355 17.544C115.54 17.2225 115.794 16.9724 116.118 16.7938C116.441 16.6151 116.806 16.5258 117.212 16.5258C117.613 16.5258 117.97 16.6151 118.284 16.7938C118.602 16.9673 118.849 17.2148 119.024 17.5363C119.204 17.8527 119.294 18.2202 119.294 18.6387ZM117.212 17.2914C116.904 17.2914 116.642 17.3832 116.426 17.5669C116.215 17.7456 116.087 17.9854 116.041 18.2865H118.376C118.335 17.9905 118.209 17.7507 117.999 17.5669C117.788 17.3832 117.526 17.2914 117.212 17.2914Z" fill="white"/>
<path d="M28.5446 38.8906C23.7832 38.8636 19.8447 29.2841 19.8447 24.4055C19.8447 16.4363 25.9104 14.6916 28.248 14.6916C29.3015 14.6916 30.4264 15.0994 31.4186 15.4602C32.1124 15.7119 32.83 15.9717 33.2291 15.9717C33.4679 15.9717 34.0308 15.7507 34.5278 15.5568C35.5878 15.1409 36.9067 14.624 38.4425 14.624C38.4453 14.624 38.449 14.624 38.4517 14.624C39.5985 14.624 43.0757 14.8721 45.1663 17.9663L45.6559 18.6916L44.9512 19.2157C43.9444 19.9644 42.1073 21.3303 42.1073 24.0357C42.1073 27.24 44.1878 28.4722 45.1873 29.0649C45.6285 29.3265 46.0852 29.5963 46.0852 30.1862C46.0852 30.5715 42.9659 38.8428 38.4361 38.8428C37.3277 38.8428 36.5442 38.5145 35.8531 38.2249C35.1539 37.9317 34.5507 37.6791 33.5539 37.6791C33.0487 37.6791 32.4098 37.9146 31.7334 38.1645C30.809 38.5045 29.7628 38.8906 28.5757 38.8906H28.5446Z" fill="white"/>
<path d="M38.9223 7.36035C39.0403 11.5528 35.9983 14.4614 32.9598 14.279C32.4591 10.9332 35.9979 7.36035 38.9223 7.36035Z" fill="white"/>
</svg>
