<svg width="44" height="44" viewBox="0 0 44 44" fill="none" xmlns="http://www.w3.org/2000/svg">
<path d="M22 44C34.1503 44 44 34.1503 44 22C44 9.84974 34.1503 0 22 0C9.84974 0 0 9.84974 0 22C0 34.1503 9.84974 44 22 44Z" fill="#DBE3F9"/>
<path d="M26.2792 23.8398L26.8493 19.7087H23.2831V17.028C23.2831 15.8978 23.7813 14.7961 25.3786 14.7961H27V11.2791C27 11.2791 25.5285 11 24.1217 11C21.1845 11 19.2648 12.9784 19.2648 16.5602V19.7087H16V23.8398H19.2648V33.9102C20.2308 34 20.5905 34 21.274 34C21.9575 34 22.3462 34 23.2831 33.8742V23.8398H26.2792Z" fill="#1877F2"/>
</svg>
