<svg width="20" height="20" viewBox="0 0 20 20" fill="none" xmlns="http://www.w3.org/2000/svg">
<path d="M19.9401 5.87753C19.8914 4.81308 19.7223 4.08616 19.4751 3.45017C19.2241 2.78291 18.8305 2.17851 18.3217 1.67894C17.8223 1.17022 17.2178 0.776393 16.5505 0.525235C15.9144 0.278197 15.1876 0.109283 14.1231 0.0609127C13.0567 0.0120849 12.716 0.000488281 10.0002 0.000488281C7.2845 0.000488281 6.94377 0.0120849 5.87734 0.0606075C4.8129 0.109283 4.08613 0.278349 3.44999 0.52554C2.78273 0.776546 2.17833 1.17022 1.67876 1.67894C1.17004 2.17836 0.77621 2.78276 0.525052 3.45002C0.278013 4.08616 0.1091 4.81308 0.0607296 5.87738C0.0119018 6.94396 0.000305176 7.28453 0.000305176 10.0003C0.000305176 12.7162 0.0119018 13.0569 0.0607296 14.1233C0.109252 15.1876 0.278319 15.9145 0.525509 16.5507C0.776515 17.2178 1.17019 17.8223 1.67891 18.3218C2.17833 18.8305 2.78288 19.2242 3.45014 19.4752C4.08613 19.7225 4.81305 19.8914 5.8775 19.9401C6.94408 19.9888 7.28465 20.0002 10.0004 20.0002C12.7161 20.0002 13.0569 19.9888 14.1233 19.9401C15.1877 19.8914 15.9145 19.7225 16.5506 19.4752C17.8939 18.9558 18.9557 17.8939 19.4751 16.5507C19.7225 15.9145 19.8914 15.1876 19.9401 14.1233C19.9886 13.0567 20.0002 12.7162 20.0002 10.0004C20.0002 7.28453 19.9886 6.94396 19.9401 5.87753ZM18.14 14.0414C18.0956 15.0164 17.9326 15.5459 17.7958 15.8982C17.4593 16.7704 16.7701 17.4596 15.8979 17.7961C15.5456 17.933 15.0161 18.0959 14.0411 18.1403C12.9868 18.1885 12.6705 18.1986 10.0002 18.1986C7.32982 18.1986 7.01366 18.1885 5.95928 18.1403C4.98441 18.0959 4.45493 17.933 4.10245 17.7961C3.66819 17.6357 3.27528 17.3801 2.95271 17.048C2.62053 16.7254 2.36495 16.3326 2.20458 15.8982C2.06771 15.5459 1.90474 15.0164 1.86034 14.0414C1.81228 12.987 1.80205 12.6707 1.80205 10.0006C1.80205 7.33031 1.81228 7.01415 1.86034 5.95962C1.9049 4.98459 2.06771 4.45511 2.20458 4.10279C2.36495 3.66837 2.62068 3.27546 2.95271 2.95289C3.27528 2.62071 3.66819 2.36513 4.10261 2.20491C4.45493 2.06789 4.98441 1.90508 5.95944 1.86052C7.01381 1.81246 7.33012 1.80224 10.0002 1.80224H10.0001C12.6702 1.80224 12.9865 1.81246 14.0411 1.86068C15.0161 1.90508 15.5454 2.06804 15.8979 2.20491C16.3321 2.36528 16.7251 2.62086 17.0476 2.95289C17.3798 3.27546 17.6354 3.66837 17.7956 4.10279C17.9326 4.45511 18.0956 4.98459 18.14 5.95962C18.1881 7.014 18.1983 7.33031 18.1983 10.0004C18.1983 12.6707 18.1882 12.9869 18.14 14.0414Z" fill="url(#paint0_linear_4325_650)"/>
<path d="M10.0002 4.86523C7.16426 4.86523 4.86523 7.16441 4.86523 10.0004C4.86523 12.8364 7.16426 15.1354 10.0002 15.1354C12.8364 15.1354 15.1354 12.8364 15.1354 10.0004C15.1354 7.16441 12.8364 4.86523 10.0002 4.86523ZM10.0002 13.3337C8.15943 13.3335 6.66698 11.8412 6.66713 10.0002C6.66713 8.15943 8.15943 6.66698 10.0004 6.66698C11.8414 6.66713 13.3337 8.15943 13.3337 10.0002C13.3337 11.8412 11.8412 13.3337 10.0002 13.3337Z" fill="url(#paint1_linear_4325_650)"/>
<path d="M16.5384 4.6625C16.5384 5.32518 16.0011 5.86244 15.3385 5.86244C14.6756 5.86244 14.1384 5.32518 14.1384 4.6625C14.1384 3.99966 14.6756 3.4624 15.3385 3.4624C16.0011 3.4624 16.5384 3.99966 16.5384 4.6625Z" fill="url(#paint2_linear_4325_650)"/>
<defs>
<linearGradient id="paint0_linear_4325_650" x1="1.67866" y1="18.3218" x2="18.3218" y2="1.67868" gradientUnits="userSpaceOnUse">
<stop stop-color="#FFD600"/>
<stop offset="0.5" stop-color="#FF0100"/>
<stop offset="1" stop-color="#D800B9"/>
</linearGradient>
<linearGradient id="paint1_linear_4325_650" x1="6.36929" y1="13.6314" x2="13.6314" y2="6.36928" gradientUnits="userSpaceOnUse">
<stop stop-color="#FF6400"/>
<stop offset="0.5" stop-color="#FF0100"/>
<stop offset="1" stop-color="#FD0056"/>
</linearGradient>
<linearGradient id="paint2_linear_4325_650" x1="14.4899" y1="5.51093" x2="16.1869" y2="3.81392" gradientUnits="userSpaceOnUse">
<stop stop-color="#F30072"/>
<stop offset="1" stop-color="#E50097"/>
</linearGradient>
</defs>
</svg>
