<svg width="44" height="44" viewBox="0 0 44 44" fill="none" xmlns="http://www.w3.org/2000/svg">
<path d="M22 44C34.1503 44 44 34.1503 44 22C44 9.84974 34.1503 0 22 0C9.84974 0 0 9.84974 0 22C0 34.1503 9.84974 44 22 44Z" fill="#DBE3F9"/>
<path d="M18.5162 22.4591C16.773 22.4591 15.3646 23.8675 15.3904 25.5936C15.4075 26.7014 16.0173 27.6632 16.9146 28.1999C16.6098 27.7319 16.4295 27.178 16.4209 26.5811C16.3951 24.855 17.8035 23.4467 19.5467 23.4467C19.8902 23.4467 20.2208 23.5025 20.53 23.6013V20.1448C20.208 20.0975 19.8773 20.0718 19.5467 20.0718C19.5296 20.0718 19.5167 20.0718 19.4995 20.0718V22.6137C19.1903 22.5149 18.8597 22.4591 18.5162 22.4591Z" fill="#F00044"/>
<path d="M26.0522 12.0938H26.0264H25.1333C25.3909 13.3862 26.1166 14.5111 27.1299 15.2754C26.4644 14.3952 26.0608 13.296 26.0522 12.0938Z" fill="#F00044"/>
<path d="M31.3076 17.3537C30.9684 17.3537 30.642 17.3194 30.32 17.2593V19.7368C29.1521 19.7368 28.0186 19.5092 26.9537 19.0541C26.2667 18.7621 25.6269 18.3885 25.0387 17.9377L25.0559 25.5763C25.0473 27.2938 24.3689 28.904 23.1408 30.1191C22.1404 31.1067 20.8737 31.7379 19.4997 31.9397C19.1777 31.9869 18.8471 32.0127 18.5165 32.0127C17.048 32.0127 15.6482 31.5361 14.5104 30.6558C14.6392 30.8104 14.7766 30.9607 14.9269 31.1067C16.1635 32.3261 17.8037 33.0002 19.5513 33.0002C19.8819 33.0002 20.2125 32.9745 20.5345 32.9272C21.9085 32.7254 23.1752 32.0943 24.1756 31.1067C25.4037 29.8915 26.0821 28.2814 26.0907 26.5639L26.0262 18.9253C26.6102 19.3761 27.25 19.754 27.9413 20.0416C29.0104 20.4925 30.144 20.7243 31.3076 20.7243" fill="#F00044"/>
<path d="M14.9136 21.9742C16.1373 20.759 17.7646 20.0849 19.4993 20.072V19.1575C19.1773 19.1102 18.8467 19.0845 18.516 19.0845C16.7642 19.0845 15.1197 19.7586 13.8831 20.9866C12.6679 22.1932 11.9723 23.842 11.9766 25.5552C11.9766 27.2813 12.6594 28.9 13.8917 30.1238C14.0892 30.317 14.291 30.4973 14.5057 30.6605C13.5353 29.5055 13.0071 28.0627 13.0029 26.5428C13.0071 24.8295 13.6984 23.1807 14.9136 21.9742Z" fill="#08FFF9"/>
<path d="M30.3196 17.2591V16.3402H30.311C29.1173 16.3402 28.0181 15.9452 27.1336 15.2754C27.9022 16.2887 29.0272 17.0101 30.3196 17.2591Z" fill="#08FFF9"/>
<path d="M19.3708 29.6212C19.7787 29.6426 20.1694 29.5868 20.5301 29.4709C21.7753 29.063 22.6727 27.9037 22.6727 26.5382L22.677 21.4287V12.094H25.133C25.0686 11.772 25.0342 11.4457 25.03 11.1064H21.6465V20.4368L21.6422 25.5464C21.6422 26.9118 20.7448 28.0711 19.4996 28.479C19.1389 28.5992 18.7482 28.6551 18.3403 28.6293C17.8207 28.5992 17.3355 28.4447 16.9147 28.1956C17.4429 29.0114 18.3446 29.5653 19.3708 29.6212Z" fill="#08FFF9"/>
<path d="M19.4992 31.9395C20.8732 31.7377 22.1399 31.1065 23.1403 30.119C24.3683 28.9038 25.0468 27.2937 25.0554 25.5762L25.0382 17.9376C25.6221 18.3884 26.2619 18.7663 26.9532 19.0539C28.0223 19.5048 29.1559 19.7367 30.3195 19.7367V17.2592C29.0271 17.0101 27.9021 16.2888 27.1335 15.2754C26.1202 14.5111 25.3903 13.3862 25.1369 12.0938H22.6766V21.4241L22.6723 26.5337C22.6723 27.8991 21.7749 29.0584 20.5297 29.4663C20.169 29.5866 19.7783 29.6424 19.3704 29.6166C18.3399 29.5608 17.4425 29.0069 16.9144 28.1954C16.017 27.6629 15.4073 26.6968 15.3901 25.5891C15.3643 23.863 16.7727 22.4546 18.5159 22.4546C18.8594 22.4546 19.1901 22.5104 19.4992 22.6092V20.0673C17.7645 20.0802 16.1372 20.7543 14.9135 21.9694C13.6983 23.176 13.0027 24.8248 13.007 26.5337C13.007 28.0537 13.5352 29.4964 14.5099 30.6514C15.652 31.5316 17.0475 32.0082 18.5159 32.0082C18.8466 32.0125 19.1772 31.9868 19.4992 31.9395Z" fill="black"/>
</svg>
