<svg width="84" height="86" viewBox="0 0 84 86" fill="none" xmlns="http://www.w3.org/2000/svg">
<path d="M30.5463 -8.52585e-05C26.5351 -8.54339e-05 22.563 0.789995 18.8571 2.32505C15.1512 3.8601 11.7839 6.11006 8.94744 8.94647C6.11104 11.7829 3.86107 15.1502 2.32602 18.8561C0.790968 22.5621 0.00088652 26.5341 0.000886345 30.5454L30.5463 30.5454L30.5463 -8.52585e-05Z" fill="#00E1F0"/>
<path d="M53.4545 24.8178C49.4433 24.8178 45.4713 25.6079 41.7653 27.1429C38.0594 28.678 34.6921 30.9279 31.8556 33.7643C29.0192 36.6007 26.7693 39.9681 25.2342 43.674C23.6992 47.3799 22.9091 51.352 22.9091 55.3632L53.4545 55.3632L53.4545 24.8178Z" fill="#3734A9"/>
</svg>
